# xmcd CD database file
#
# Track frame offsets:
#	150
#	22055
#	34462
#	50422
#	65375
#	78890
#	95032
#	112717
#	132625
#	152737
#
# Disc length: 2360 seconds
#
# Revision: 0
# Processed by: cddbd v1.5PL3 Copyright (c) Steve Scherf et al.
# Submitted via: CDex 1.40Release
#
DISCID=8209360a
DTITLE=54-71 - true men of non-doing
DYEAR=2003
DGENRE=不明
TTITLE0=emolition man
TTITLE1=napolitan
TTITLE2=idiot
TTITLE3=marlama
TTITLE4=sunday morning
TTITLE5=tea for two
TTITLE6=true man non-doing
TTITLE7=galaxy
TTITLE8=november
TTITLE9=i'm in love
EXTD=YEAR: 2003
EXTT0=
EXTT1=
EXTT2=
EXTT3=
EXTT4=
EXTT5=
EXTT6=
EXTT7=
EXTT8=
EXTT9=
PLAYORDER=
